<!--?xml version="1.0" standalone="no"?-->
              <svg id="sw-js-blob-svg" viewBox="0 0 100 100" xmlns="http://www.w3.org/2000/svg" version="1.1">
                    <defs> 
                        <linearGradient id="sw-gradient" x1="0" x2="1" y1="1" y2="0">
                            <stop id="stop1" stop-color="rgba(248, 117, 55, 1)" offset="0%"></stop>
                            <stop id="stop2" stop-color="rgba(251, 168, 31, 1)" offset="100%"></stop>
                        </linearGradient>
                    </defs>
                <path fill="url(#sw-gradient)" d="M10.3,-15.6C14.7,-8.6,20.5,-6.6,25.5,-1.1C30.5,4.4,34.6,13.4,32.2,19.6C29.8,25.8,20.8,29.2,13.3,28.5C5.7,27.8,-0.5,23,-7.6,20.6C-14.7,18.1,-22.7,17.9,-28.5,13.7C-34.2,9.4,-37.7,1.1,-36,-5.9C-34.3,-13,-27.4,-18.7,-20.5,-25.2C-13.6,-31.6,-6.8,-38.9,-1.9,-36.6C3,-34.3,6,-22.5,10.3,-15.6Z" width="100%" height="100%" transform="translate(50 50)" stroke-width="0" style="transition: all 0.3s ease 0s;"></path>
              </svg>