<!--?xml version="1.0" standalone="no"?-->
              <svg id="sw-js-blob-svg" viewBox="0 0 100 100" xmlns="http://www.w3.org/2000/svg" version="1.1">
                    <defs> 
                        <linearGradient id="sw-gradient" x1="0" x2="1" y1="1" y2="0">
                            <stop id="stop1" stop-color="rgba(248, 117, 55, 1)" offset="0%"></stop>
                            <stop id="stop2" stop-color="rgba(251, 168, 31, 1)" offset="100%"></stop>
                        </linearGradient>
                    </defs>
                <path fill="url(#sw-gradient)" d="M20,-29.8C26.1,-31.1,31.4,-26.1,27.9,-20.1C24.5,-14.1,12.4,-7.1,9.1,-1.9C5.8,3.2,11.3,6.5,13.9,11.1C16.5,15.7,16.2,21.7,13.4,22C10.6,22.4,5.3,17.2,1.8,14.1C-1.7,10.9,-3.4,9.9,-7.1,10.1C-10.9,10.2,-16.6,11.6,-19.7,10.1C-22.9,8.6,-23.3,4.3,-20.9,1.4C-18.5,-1.5,-13.1,-3,-9.7,-4C-6.4,-5.1,-5,-5.7,-3.7,-7.2C-2.4,-8.8,-1.2,-11.2,2.9,-16.1C6.9,-21.1,13.9,-28.6,20,-29.8Z" width="100%" height="100%" transform="translate(50 50)" stroke-width="0" style="transition: all 0.3s ease 0s;"></path>
              </svg>